<mxfile host="app.diagrams.net" modified="2023-07-04T20:10:58.925Z" agent="Mozilla/5.0 (Windows NT 10.0; Win64; x64) AppleWebKit/537.36 (KHTML, like Gecko) Chrome/113.0.0.0 Safari/537.36 OPR/99.0.0.0" etag="jKzzsCUHmPghsEtPbqA5" version="21.5.2" type="github">
  <diagram name="Страница 1" id="QtQXmldiNTKPICtazsVT">
    <mxGraphModel dx="2727" dy="2924" grid="1" gridSize="10" guides="1" tooltips="1" connect="1" arrows="1" fold="1" page="1" pageScale="1" pageWidth="827" pageHeight="1169" math="0" shadow="0">
      <root>
        <mxCell id="0" />
        <mxCell id="1" parent="0" />
        <mxCell id="97cKPJCTR9U8n9Qk_Sft-58" value="" style="rounded=0;whiteSpace=wrap;html=1;fillColor=#b1ddf0;strokeColor=#10739e;" parent="1" vertex="1">
          <mxGeometry x="-1620" y="-1620" width="3240" height="2730" as="geometry" />
        </mxCell>
        <mxCell id="97cKPJCTR9U8n9Qk_Sft-60" value="" style="group" parent="1" vertex="1" connectable="0">
          <mxGeometry x="685" y="-160" width="490" height="1180" as="geometry" />
        </mxCell>
        <mxCell id="97cKPJCTR9U8n9Qk_Sft-14" value="" style="rounded=0;whiteSpace=wrap;html=1;fillColor=#6d8764;fontColor=#ffffff;strokeColor=#0a0a0a;" parent="97cKPJCTR9U8n9Qk_Sft-60" vertex="1">
          <mxGeometry width="490" height="750" as="geometry" />
        </mxCell>
        <mxCell id="97cKPJCTR9U8n9Qk_Sft-15" value="авторизация\регистрация" style="rounded=0;whiteSpace=wrap;html=1;fillColor=#ffcd28;strokeColor=#d79b00;gradientColor=#ffa500;" parent="97cKPJCTR9U8n9Qk_Sft-60" vertex="1">
          <mxGeometry x="155" width="180" height="30" as="geometry" />
        </mxCell>
        <mxCell id="97cKPJCTR9U8n9Qk_Sft-17" value="" style="rounded=0;whiteSpace=wrap;html=1;fillColor=#dae8fc;strokeColor=#6c8ebf;" parent="97cKPJCTR9U8n9Qk_Sft-60" vertex="1">
          <mxGeometry x="10" y="75" width="155" height="200" as="geometry" />
        </mxCell>
        <mxCell id="97cKPJCTR9U8n9Qk_Sft-18" value="авторизация" style="rounded=0;whiteSpace=wrap;html=1;fillColor=#ffcd28;strokeColor=#d79b00;gradientColor=#ffa500;" parent="97cKPJCTR9U8n9Qk_Sft-60" vertex="1">
          <mxGeometry x="42.5" y="85" width="90" height="20" as="geometry" />
        </mxCell>
        <mxCell id="97cKPJCTR9U8n9Qk_Sft-30" value="" style="edgeStyle=orthogonalEdgeStyle;rounded=0;orthogonalLoop=1;jettySize=auto;html=1;strokeColor=#000000;exitX=0.5;exitY=1;exitDx=0;exitDy=0;" parent="97cKPJCTR9U8n9Qk_Sft-60" source="97cKPJCTR9U8n9Qk_Sft-17" target="97cKPJCTR9U8n9Qk_Sft-20" edge="1">
          <mxGeometry relative="1" as="geometry" />
        </mxCell>
        <mxCell id="97cKPJCTR9U8n9Qk_Sft-19" value="Ввести данные&lt;br&gt;&lt;br&gt;email&lt;br&gt;&lt;br&gt;password" style="rounded=0;whiteSpace=wrap;html=1;fillColor=#ffcd28;strokeColor=#d79b00;gradientColor=#ffa500;" parent="97cKPJCTR9U8n9Qk_Sft-60" vertex="1">
          <mxGeometry x="27.5" y="130" width="120" height="120" as="geometry" />
        </mxCell>
        <mxCell id="97cKPJCTR9U8n9Qk_Sft-20" value="на главную страницу" style="rounded=0;whiteSpace=wrap;html=1;fillColor=#ffcd28;strokeColor=#d79b00;gradientColor=#ffa500;" parent="97cKPJCTR9U8n9Qk_Sft-60" vertex="1">
          <mxGeometry x="27.5" y="320" width="120" height="40" as="geometry" />
        </mxCell>
        <mxCell id="97cKPJCTR9U8n9Qk_Sft-31" value="" style="edgeStyle=orthogonalEdgeStyle;rounded=0;orthogonalLoop=1;jettySize=auto;html=1;strokeColor=#000000;" parent="97cKPJCTR9U8n9Qk_Sft-60" source="97cKPJCTR9U8n9Qk_Sft-18" target="97cKPJCTR9U8n9Qk_Sft-19" edge="1">
          <mxGeometry relative="1" as="geometry" />
        </mxCell>
        <mxCell id="97cKPJCTR9U8n9Qk_Sft-32" value="" style="edgeStyle=orthogonalEdgeStyle;rounded=0;orthogonalLoop=1;jettySize=auto;html=1;strokeColor=#121111;entryX=0.5;entryY=0;entryDx=0;entryDy=0;exitX=0;exitY=0.5;exitDx=0;exitDy=0;" parent="97cKPJCTR9U8n9Qk_Sft-60" source="97cKPJCTR9U8n9Qk_Sft-15" target="97cKPJCTR9U8n9Qk_Sft-17" edge="1">
          <mxGeometry relative="1" as="geometry" />
        </mxCell>
        <mxCell id="97cKPJCTR9U8n9Qk_Sft-34" value="" style="rounded=0;whiteSpace=wrap;html=1;fillColor=#dae8fc;strokeColor=#6c8ebf;" parent="97cKPJCTR9U8n9Qk_Sft-60" vertex="1">
          <mxGeometry x="280" y="75" width="160" height="275" as="geometry" />
        </mxCell>
        <mxCell id="97cKPJCTR9U8n9Qk_Sft-35" value="зарегистрироваться" style="rounded=0;whiteSpace=wrap;html=1;fillColor=#ffcd28;gradientColor=#ffa500;strokeColor=#d79b00;" parent="97cKPJCTR9U8n9Qk_Sft-60" vertex="1">
          <mxGeometry x="300" y="85" width="120" height="20" as="geometry" />
        </mxCell>
        <mxCell id="97cKPJCTR9U8n9Qk_Sft-36" value="введите данные&lt;br&gt;&lt;br&gt;фамилия&lt;br&gt;&lt;br&gt;имя&lt;br&gt;&lt;br&gt;страна\город&lt;br&gt;&lt;br&gt;Email&lt;br&gt;&lt;br&gt;password&lt;br&gt;password" style="rounded=0;whiteSpace=wrap;html=1;fillColor=#ffcd28;gradientColor=#ffa500;strokeColor=#d79b00;" parent="97cKPJCTR9U8n9Qk_Sft-60" vertex="1">
          <mxGeometry x="300" y="130" width="120" height="190" as="geometry" />
        </mxCell>
        <mxCell id="97cKPJCTR9U8n9Qk_Sft-44" style="edgeStyle=orthogonalEdgeStyle;rounded=0;orthogonalLoop=1;jettySize=auto;html=1;entryX=0.5;entryY=0;entryDx=0;entryDy=0;strokeColor=#000000;" parent="97cKPJCTR9U8n9Qk_Sft-60" source="97cKPJCTR9U8n9Qk_Sft-35" target="97cKPJCTR9U8n9Qk_Sft-36" edge="1">
          <mxGeometry relative="1" as="geometry" />
        </mxCell>
        <mxCell id="97cKPJCTR9U8n9Qk_Sft-38" style="edgeStyle=orthogonalEdgeStyle;rounded=0;orthogonalLoop=1;jettySize=auto;html=1;strokeColor=#0f0f0f;exitX=1;exitY=0.5;exitDx=0;exitDy=0;entryX=0.5;entryY=0;entryDx=0;entryDy=0;" parent="97cKPJCTR9U8n9Qk_Sft-60" source="97cKPJCTR9U8n9Qk_Sft-15" target="97cKPJCTR9U8n9Qk_Sft-34" edge="1">
          <mxGeometry relative="1" as="geometry">
            <mxPoint x="360" y="70" as="targetPoint" />
          </mxGeometry>
        </mxCell>
        <mxCell id="97cKPJCTR9U8n9Qk_Sft-57" style="edgeStyle=orthogonalEdgeStyle;rounded=0;orthogonalLoop=1;jettySize=auto;html=1;entryX=0.5;entryY=1;entryDx=0;entryDy=0;exitX=0.5;exitY=1;exitDx=0;exitDy=0;strokeColor=#0a0a0a;" parent="97cKPJCTR9U8n9Qk_Sft-60" source="97cKPJCTR9U8n9Qk_Sft-45" target="97cKPJCTR9U8n9Qk_Sft-20" edge="1">
          <mxGeometry relative="1" as="geometry" />
        </mxCell>
        <mxCell id="97cKPJCTR9U8n9Qk_Sft-45" value="" style="rounded=0;whiteSpace=wrap;html=1;fillColor=#dae8fc;strokeColor=#6c8ebf;" parent="97cKPJCTR9U8n9Qk_Sft-60" vertex="1">
          <mxGeometry x="280" y="380" width="160" height="320" as="geometry" />
        </mxCell>
        <mxCell id="97cKPJCTR9U8n9Qk_Sft-43" style="edgeStyle=orthogonalEdgeStyle;rounded=0;orthogonalLoop=1;jettySize=auto;html=1;exitX=0.5;exitY=1;exitDx=0;exitDy=0;strokeColor=#000000;entryX=0.5;entryY=0;entryDx=0;entryDy=0;" parent="97cKPJCTR9U8n9Qk_Sft-60" source="97cKPJCTR9U8n9Qk_Sft-34" target="97cKPJCTR9U8n9Qk_Sft-45" edge="1">
          <mxGeometry relative="1" as="geometry" />
        </mxCell>
        <mxCell id="97cKPJCTR9U8n9Qk_Sft-48" value="подтверждение email" style="rounded=0;whiteSpace=wrap;html=1;fillColor=#ffcd28;strokeColor=#d79b00;gradientColor=#ffa500;" parent="97cKPJCTR9U8n9Qk_Sft-60" vertex="1">
          <mxGeometry x="300" y="390" width="120" height="30" as="geometry" />
        </mxCell>
        <mxCell id="97cKPJCTR9U8n9Qk_Sft-49" value="Ввести код подтверждения" style="rounded=0;whiteSpace=wrap;html=1;fillColor=#ffcd28;strokeColor=#d79b00;gradientColor=#ffa500;" parent="97cKPJCTR9U8n9Qk_Sft-60" vertex="1">
          <mxGeometry x="300" y="439" width="120" height="30" as="geometry" />
        </mxCell>
        <mxCell id="97cKPJCTR9U8n9Qk_Sft-50" value="страница верификации" style="rounded=0;whiteSpace=wrap;html=1;fillColor=#ffcd28;strokeColor=#d79b00;gradientColor=#ffa500;" parent="97cKPJCTR9U8n9Qk_Sft-60" vertex="1">
          <mxGeometry x="300" y="490" width="120" height="30" as="geometry" />
        </mxCell>
        <mxCell id="97cKPJCTR9U8n9Qk_Sft-51" value="фото паспорта" style="swimlane;fontStyle=0;childLayout=stackLayout;horizontal=1;startSize=30;horizontalStack=0;resizeParent=1;resizeParentMax=0;resizeLast=0;collapsible=1;marginBottom=0;whiteSpace=wrap;html=1;fillColor=#ffcd28;strokeColor=#d79b00;gradientColor=#ffa500;" parent="97cKPJCTR9U8n9Qk_Sft-60" vertex="1">
          <mxGeometry x="290" y="530" width="140" height="120" as="geometry" />
        </mxCell>
        <mxCell id="97cKPJCTR9U8n9Qk_Sft-52" value="селфи" style="text;strokeColor=#d79b00;fillColor=#ffcd28;align=left;verticalAlign=middle;spacingLeft=4;spacingRight=4;overflow=hidden;points=[[0,0.5],[1,0.5]];portConstraint=eastwest;rotatable=0;whiteSpace=wrap;html=1;gradientColor=#ffa500;" parent="97cKPJCTR9U8n9Qk_Sft-51" vertex="1">
          <mxGeometry y="30" width="140" height="30" as="geometry" />
        </mxCell>
        <mxCell id="97cKPJCTR9U8n9Qk_Sft-53" value="ФИО" style="text;strokeColor=#d79b00;fillColor=#ffcd28;align=left;verticalAlign=middle;spacingLeft=4;spacingRight=4;overflow=hidden;points=[[0,0.5],[1,0.5]];portConstraint=eastwest;rotatable=0;whiteSpace=wrap;html=1;gradientColor=#ffa500;" parent="97cKPJCTR9U8n9Qk_Sft-51" vertex="1">
          <mxGeometry y="60" width="140" height="30" as="geometry" />
        </mxCell>
        <mxCell id="97cKPJCTR9U8n9Qk_Sft-54" value="номер телефона" style="text;strokeColor=#d79b00;fillColor=#ffcd28;align=left;verticalAlign=middle;spacingLeft=4;spacingRight=4;overflow=hidden;points=[[0,0.5],[1,0.5]];portConstraint=eastwest;rotatable=0;whiteSpace=wrap;html=1;gradientColor=#ffa500;" parent="97cKPJCTR9U8n9Qk_Sft-51" vertex="1">
          <mxGeometry y="90" width="140" height="30" as="geometry" />
        </mxCell>
        <mxCell id="97cKPJCTR9U8n9Qk_Sft-56" value="подтверждение верификации" style="rounded=0;whiteSpace=wrap;html=1;fillColor=#ffcd28;gradientColor=#ffa500;strokeColor=#d79b00;" parent="97cKPJCTR9U8n9Qk_Sft-60" vertex="1">
          <mxGeometry x="300" y="660" width="120" height="30" as="geometry" />
        </mxCell>
        <mxCell id="97cKPJCTR9U8n9Qk_Sft-61" value="" style="group" parent="1" vertex="1" connectable="0">
          <mxGeometry x="-1490" y="-1580" width="240" height="340" as="geometry" />
        </mxCell>
        <mxCell id="97cKPJCTR9U8n9Qk_Sft-1" value="" style="rounded=0;whiteSpace=wrap;html=1;fillColor=#60a917;fontColor=#ffffff;strokeColor=#2D7600;" parent="97cKPJCTR9U8n9Qk_Sft-61" vertex="1">
          <mxGeometry width="240" height="340" as="geometry" />
        </mxCell>
        <mxCell id="97cKPJCTR9U8n9Qk_Sft-2" value="Главная страница" style="rounded=0;whiteSpace=wrap;html=1;" parent="97cKPJCTR9U8n9Qk_Sft-61" vertex="1">
          <mxGeometry x="30" y="10" width="180" height="30" as="geometry" />
        </mxCell>
        <mxCell id="97cKPJCTR9U8n9Qk_Sft-3" value="регистрация\авторизация" style="rounded=0;whiteSpace=wrap;html=1;" parent="97cKPJCTR9U8n9Qk_Sft-61" vertex="1">
          <mxGeometry x="30" y="50" width="180" height="30" as="geometry" />
        </mxCell>
        <mxCell id="97cKPJCTR9U8n9Qk_Sft-4" value="кошелёк" style="rounded=0;whiteSpace=wrap;html=1;" parent="97cKPJCTR9U8n9Qk_Sft-61" vertex="1">
          <mxGeometry x="30" y="90" width="180" height="30" as="geometry" />
        </mxCell>
        <mxCell id="97cKPJCTR9U8n9Qk_Sft-5" value="рынок" style="rounded=0;whiteSpace=wrap;html=1;" parent="97cKPJCTR9U8n9Qk_Sft-61" vertex="1">
          <mxGeometry x="30" y="130" width="180" height="30" as="geometry" />
        </mxCell>
        <mxCell id="97cKPJCTR9U8n9Qk_Sft-6" value="обменник" style="rounded=0;whiteSpace=wrap;html=1;" parent="97cKPJCTR9U8n9Qk_Sft-61" vertex="1">
          <mxGeometry x="30" y="170" width="180" height="30" as="geometry" />
        </mxCell>
        <mxCell id="97cKPJCTR9U8n9Qk_Sft-7" value="P2P сделки" style="rounded=0;whiteSpace=wrap;html=1;" parent="97cKPJCTR9U8n9Qk_Sft-61" vertex="1">
          <mxGeometry x="30" y="210" width="180" height="30" as="geometry" />
        </mxCell>
        <mxCell id="97cKPJCTR9U8n9Qk_Sft-8" value="NFT" style="rounded=0;whiteSpace=wrap;html=1;" parent="97cKPJCTR9U8n9Qk_Sft-61" vertex="1">
          <mxGeometry x="30" y="250" width="180" height="30" as="geometry" />
        </mxCell>
        <mxCell id="97cKPJCTR9U8n9Qk_Sft-9" value="поддержка" style="rounded=0;whiteSpace=wrap;html=1;" parent="97cKPJCTR9U8n9Qk_Sft-61" vertex="1">
          <mxGeometry x="30" y="290" width="180" height="30" as="geometry" />
        </mxCell>
        <mxCell id="97cKPJCTR9U8n9Qk_Sft-74" value="" style="group;fillColor=#d5e8d4;strokeColor=#82b366;" parent="1" vertex="1" connectable="0">
          <mxGeometry x="159" y="-160" width="350" height="380" as="geometry" />
        </mxCell>
        <mxCell id="97cKPJCTR9U8n9Qk_Sft-62" value="" style="rounded=0;whiteSpace=wrap;html=1;fillColor=#6d8764;fontColor=#ffffff;strokeColor=#3A5431;" parent="97cKPJCTR9U8n9Qk_Sft-74" vertex="1">
          <mxGeometry width="350" height="380" as="geometry" />
        </mxCell>
        <mxCell id="97cKPJCTR9U8n9Qk_Sft-64" value="кошелек" style="rounded=0;whiteSpace=wrap;html=1;fillColor=#ffcd28;strokeColor=#d79b00;gradientColor=#ffa500;" parent="97cKPJCTR9U8n9Qk_Sft-74" vertex="1">
          <mxGeometry x="100" y="20" width="120" height="30" as="geometry" />
        </mxCell>
        <mxCell id="97cKPJCTR9U8n9Qk_Sft-65" value="создать кошелек" style="rounded=0;whiteSpace=wrap;html=1;fillColor=#ffcd28;strokeColor=#d79b00;gradientColor=#ffa500;" parent="97cKPJCTR9U8n9Qk_Sft-74" vertex="1">
          <mxGeometry x="100" y="100" width="120" height="30" as="geometry" />
        </mxCell>
        <mxCell id="97cKPJCTR9U8n9Qk_Sft-69" style="edgeStyle=orthogonalEdgeStyle;rounded=0;orthogonalLoop=1;jettySize=auto;html=1;entryX=0.5;entryY=0;entryDx=0;entryDy=0;strokeColor=#000000;" parent="97cKPJCTR9U8n9Qk_Sft-74" source="97cKPJCTR9U8n9Qk_Sft-64" target="97cKPJCTR9U8n9Qk_Sft-65" edge="1">
          <mxGeometry relative="1" as="geometry" />
        </mxCell>
        <mxCell id="97cKPJCTR9U8n9Qk_Sft-68" value="страница с акциями и криптой&lt;br&gt;&lt;br&gt;btch=&lt;br&gt;etch=&lt;br&gt;eYe=&lt;br&gt;Teshin=&lt;br&gt;Apple=" style="rounded=0;whiteSpace=wrap;html=1;fillColor=#ffcd28;gradientColor=#ffa500;strokeColor=#d79b00;" parent="97cKPJCTR9U8n9Qk_Sft-74" vertex="1">
          <mxGeometry x="100" y="180" width="120" height="170" as="geometry" />
        </mxCell>
        <mxCell id="97cKPJCTR9U8n9Qk_Sft-71" style="edgeStyle=orthogonalEdgeStyle;rounded=0;orthogonalLoop=1;jettySize=auto;html=1;entryX=1;entryY=0.5;entryDx=0;entryDy=0;exitX=1;exitY=0.5;exitDx=0;exitDy=0;strokeColor=#000000;" parent="97cKPJCTR9U8n9Qk_Sft-74" source="97cKPJCTR9U8n9Qk_Sft-64" target="97cKPJCTR9U8n9Qk_Sft-68" edge="1">
          <mxGeometry relative="1" as="geometry">
            <Array as="points">
              <mxPoint x="300" y="35" />
              <mxPoint x="300" y="245" />
            </Array>
          </mxGeometry>
        </mxCell>
        <mxCell id="97cKPJCTR9U8n9Qk_Sft-70" style="edgeStyle=orthogonalEdgeStyle;rounded=0;orthogonalLoop=1;jettySize=auto;html=1;entryX=0.5;entryY=0;entryDx=0;entryDy=0;strokeColor=#000000;" parent="97cKPJCTR9U8n9Qk_Sft-74" source="97cKPJCTR9U8n9Qk_Sft-65" target="97cKPJCTR9U8n9Qk_Sft-68" edge="1">
          <mxGeometry relative="1" as="geometry" />
        </mxCell>
        <mxCell id="97cKPJCTR9U8n9Qk_Sft-134" value="" style="group" parent="1" vertex="1" connectable="0">
          <mxGeometry x="-640" y="-160" width="670" height="980" as="geometry" />
        </mxCell>
        <mxCell id="97cKPJCTR9U8n9Qk_Sft-76" value="рынки" style="rounded=0;whiteSpace=wrap;html=1;fillColor=#f8cecc;strokeColor=#b85450;verticalAlign=top;fontColor=#000000;" parent="97cKPJCTR9U8n9Qk_Sft-134" vertex="1">
          <mxGeometry width="670" height="980" as="geometry" />
        </mxCell>
        <mxCell id="97cKPJCTR9U8n9Qk_Sft-94" value="" style="group" parent="97cKPJCTR9U8n9Qk_Sft-134" vertex="1" connectable="0">
          <mxGeometry x="30" y="40" width="590" height="230" as="geometry" />
        </mxCell>
        <mxCell id="97cKPJCTR9U8n9Qk_Sft-77" value="" style="rounded=0;whiteSpace=wrap;html=1;fillColor=#fff2cc;strokeColor=#d6b656;" parent="97cKPJCTR9U8n9Qk_Sft-94" vertex="1">
          <mxGeometry width="590" height="230" as="geometry" />
        </mxCell>
        <mxCell id="97cKPJCTR9U8n9Qk_Sft-78" value="в центре внимания" style="rounded=0;whiteSpace=wrap;html=1;fillColor=#f5f5f5;fontColor=#333333;strokeColor=#666666;" parent="97cKPJCTR9U8n9Qk_Sft-94" vertex="1">
          <mxGeometry x="77.9245283018868" y="20" width="111.32075471698113" height="60" as="geometry" />
        </mxCell>
        <mxCell id="97cKPJCTR9U8n9Qk_Sft-79" value="лидер роста" style="rounded=0;whiteSpace=wrap;html=1;fillColor=#f5f5f5;fontColor=#333333;strokeColor=#666666;" parent="97cKPJCTR9U8n9Qk_Sft-94" vertex="1">
          <mxGeometry x="189.24528301886792" y="20" width="111.32075471698113" height="60" as="geometry" />
        </mxCell>
        <mxCell id="97cKPJCTR9U8n9Qk_Sft-80" value="самые популярные" style="rounded=0;whiteSpace=wrap;html=1;fillColor=#f5f5f5;fontColor=#333333;strokeColor=#666666;" parent="97cKPJCTR9U8n9Qk_Sft-94" vertex="1">
          <mxGeometry x="300.566037735849" y="20" width="111.32075471698113" height="60" as="geometry" />
        </mxCell>
        <mxCell id="97cKPJCTR9U8n9Qk_Sft-81" value="монета\акция с максимальным объемом" style="rounded=0;whiteSpace=wrap;html=1;fillColor=#f5f5f5;fontColor=#333333;strokeColor=#666666;" parent="97cKPJCTR9U8n9Qk_Sft-94" vertex="1">
          <mxGeometry x="411.8867924528302" y="20" width="111.32075471698113" height="60" as="geometry" />
        </mxCell>
        <mxCell id="97cKPJCTR9U8n9Qk_Sft-82" value="eYe=&lt;br&gt;small=" style="rounded=0;whiteSpace=wrap;html=1;fillColor=#f5f5f5;fontColor=#333333;strokeColor=#666666;" parent="97cKPJCTR9U8n9Qk_Sft-94" vertex="1">
          <mxGeometry x="77.9245283018868" y="115" width="111.32075471698113" height="60" as="geometry" />
        </mxCell>
        <mxCell id="97cKPJCTR9U8n9Qk_Sft-87" style="edgeStyle=orthogonalEdgeStyle;rounded=0;orthogonalLoop=1;jettySize=auto;html=1;entryX=0.5;entryY=0;entryDx=0;entryDy=0;strokeColor=#000000;" parent="97cKPJCTR9U8n9Qk_Sft-94" source="97cKPJCTR9U8n9Qk_Sft-78" target="97cKPJCTR9U8n9Qk_Sft-82" edge="1">
          <mxGeometry relative="1" as="geometry" />
        </mxCell>
        <mxCell id="97cKPJCTR9U8n9Qk_Sft-83" value="qmall=" style="rounded=0;whiteSpace=wrap;html=1;fillColor=#f5f5f5;fontColor=#333333;strokeColor=#666666;" parent="97cKPJCTR9U8n9Qk_Sft-94" vertex="1">
          <mxGeometry x="189.24528301886792" y="115" width="111.32075471698113" height="60" as="geometry" />
        </mxCell>
        <mxCell id="97cKPJCTR9U8n9Qk_Sft-84" value="btc=&lt;br&gt;eth=" style="rounded=0;whiteSpace=wrap;html=1;fillColor=#f5f5f5;fontColor=#333333;strokeColor=#666666;" parent="97cKPJCTR9U8n9Qk_Sft-94" vertex="1">
          <mxGeometry x="300.566037735849" y="115" width="111.32075471698113" height="60" as="geometry" />
        </mxCell>
        <mxCell id="97cKPJCTR9U8n9Qk_Sft-86" value="btc=&lt;br&gt;eth=" style="rounded=0;whiteSpace=wrap;html=1;fillColor=#f5f5f5;fontColor=#333333;strokeColor=#666666;" parent="97cKPJCTR9U8n9Qk_Sft-94" vertex="1">
          <mxGeometry x="411.8867924528302" y="115" width="111.32075471698113" height="60" as="geometry" />
        </mxCell>
        <mxCell id="97cKPJCTR9U8n9Qk_Sft-90" style="edgeStyle=orthogonalEdgeStyle;rounded=0;orthogonalLoop=1;jettySize=auto;html=1;entryX=0.5;entryY=0;entryDx=0;entryDy=0;strokeColor=#000000;" parent="97cKPJCTR9U8n9Qk_Sft-94" edge="1">
          <mxGeometry relative="1" as="geometry">
            <mxPoint x="244.7164150943396" y="80" as="sourcePoint" />
            <mxPoint x="244.7164150943396" y="115" as="targetPoint" />
          </mxGeometry>
        </mxCell>
        <mxCell id="97cKPJCTR9U8n9Qk_Sft-91" style="edgeStyle=orthogonalEdgeStyle;rounded=0;orthogonalLoop=1;jettySize=auto;html=1;entryX=0.5;entryY=0;entryDx=0;entryDy=0;strokeColor=#000000;" parent="97cKPJCTR9U8n9Qk_Sft-94" edge="1">
          <mxGeometry relative="1" as="geometry">
            <mxPoint x="356.03716981132084" y="80" as="sourcePoint" />
            <mxPoint x="356.03716981132084" y="115" as="targetPoint" />
          </mxGeometry>
        </mxCell>
        <mxCell id="97cKPJCTR9U8n9Qk_Sft-92" style="edgeStyle=orthogonalEdgeStyle;rounded=0;orthogonalLoop=1;jettySize=auto;html=1;entryX=0.5;entryY=0;entryDx=0;entryDy=0;strokeColor=#000000;" parent="97cKPJCTR9U8n9Qk_Sft-94" edge="1">
          <mxGeometry relative="1" as="geometry">
            <mxPoint x="467.3579245283019" y="80" as="sourcePoint" />
            <mxPoint x="467.3579245283019" y="115" as="targetPoint" />
          </mxGeometry>
        </mxCell>
        <mxCell id="97cKPJCTR9U8n9Qk_Sft-95" value="" style="group" parent="97cKPJCTR9U8n9Qk_Sft-134" vertex="1" connectable="0">
          <mxGeometry x="30" y="310" width="590" height="630" as="geometry" />
        </mxCell>
        <mxCell id="97cKPJCTR9U8n9Qk_Sft-96" value="" style="rounded=0;whiteSpace=wrap;html=1;fillColor=#fff2cc;strokeColor=#d6b656;" parent="97cKPJCTR9U8n9Qk_Sft-95" vertex="1">
          <mxGeometry width="590" height="630" as="geometry" />
        </mxCell>
        <mxCell id="97cKPJCTR9U8n9Qk_Sft-97" value="рынок криптоволют" style="rounded=0;whiteSpace=wrap;html=1;fillColor=#f5f5f5;fontColor=#333333;strokeColor=#666666;" parent="97cKPJCTR9U8n9Qk_Sft-95" vertex="1">
          <mxGeometry x="128.0145283018868" y="36.34615384615385" width="111.32075471698113" height="72.6923076923077" as="geometry" />
        </mxCell>
        <mxCell id="97cKPJCTR9U8n9Qk_Sft-98" value="рынок акций компаний" style="rounded=0;whiteSpace=wrap;html=1;fillColor=#f5f5f5;fontColor=#333333;strokeColor=#666666;" parent="97cKPJCTR9U8n9Qk_Sft-95" vertex="1">
          <mxGeometry x="239.33528301886793" y="36.34615384615385" width="111.32075471698113" height="72.6923076923077" as="geometry" />
        </mxCell>
        <mxCell id="97cKPJCTR9U8n9Qk_Sft-99" value="рынок акций стартапов" style="rounded=0;whiteSpace=wrap;html=1;fillColor=#f5f5f5;fontColor=#333333;strokeColor=#666666;" parent="97cKPJCTR9U8n9Qk_Sft-95" vertex="1">
          <mxGeometry x="350.65603773584905" y="36.34615384615385" width="111.32075471698113" height="72.6923076923077" as="geometry" />
        </mxCell>
        <mxCell id="97cKPJCTR9U8n9Qk_Sft-125" style="edgeStyle=orthogonalEdgeStyle;rounded=0;orthogonalLoop=1;jettySize=auto;html=1;strokeColor=#000000;" parent="97cKPJCTR9U8n9Qk_Sft-95" source="97cKPJCTR9U8n9Qk_Sft-103" target="97cKPJCTR9U8n9Qk_Sft-114" edge="1">
          <mxGeometry relative="1" as="geometry" />
        </mxCell>
        <mxCell id="97cKPJCTR9U8n9Qk_Sft-103" value="Tesla=&lt;br&gt;Apple=" style="rounded=0;whiteSpace=wrap;html=1;fillColor=#f5f5f5;fontColor=#333333;strokeColor=#666666;" parent="97cKPJCTR9U8n9Qk_Sft-95" vertex="1">
          <mxGeometry x="239.33528301886793" y="109.03846153846153" width="111.32075471698113" height="72.6923076923077" as="geometry" />
        </mxCell>
        <mxCell id="97cKPJCTR9U8n9Qk_Sft-128" style="edgeStyle=orthogonalEdgeStyle;rounded=0;orthogonalLoop=1;jettySize=auto;html=1;strokeColor=#000000;exitX=0;exitY=0.5;exitDx=0;exitDy=0;" parent="97cKPJCTR9U8n9Qk_Sft-95" source="97cKPJCTR9U8n9Qk_Sft-109" target="97cKPJCTR9U8n9Qk_Sft-111" edge="1">
          <mxGeometry relative="1" as="geometry" />
        </mxCell>
        <mxCell id="97cKPJCTR9U8n9Qk_Sft-109" value="btc=&lt;br&gt;eth=" style="rounded=0;whiteSpace=wrap;html=1;fillColor=#f5f5f5;fontColor=#333333;strokeColor=#666666;" parent="97cKPJCTR9U8n9Qk_Sft-95" vertex="1">
          <mxGeometry x="128.01603773584904" y="109.03846153846153" width="111.32075471698113" height="72.6923076923077" as="geometry" />
        </mxCell>
        <mxCell id="97cKPJCTR9U8n9Qk_Sft-122" style="edgeStyle=orthogonalEdgeStyle;rounded=0;orthogonalLoop=1;jettySize=auto;html=1;entryX=0.5;entryY=0;entryDx=0;entryDy=0;strokeColor=#000000;exitX=1;exitY=0.5;exitDx=0;exitDy=0;" parent="97cKPJCTR9U8n9Qk_Sft-95" source="97cKPJCTR9U8n9Qk_Sft-110" target="97cKPJCTR9U8n9Qk_Sft-117" edge="1">
          <mxGeometry relative="1" as="geometry" />
        </mxCell>
        <mxCell id="97cKPJCTR9U8n9Qk_Sft-110" value="eYe=&lt;br&gt;small=" style="rounded=0;whiteSpace=wrap;html=1;fillColor=#f5f5f5;fontColor=#333333;strokeColor=#666666;" parent="97cKPJCTR9U8n9Qk_Sft-95" vertex="1">
          <mxGeometry x="350.6545283018868" y="109.03846153846153" width="111.32075471698113" height="72.6923076923077" as="geometry" />
        </mxCell>
        <mxCell id="97cKPJCTR9U8n9Qk_Sft-126" style="edgeStyle=orthogonalEdgeStyle;rounded=0;orthogonalLoop=1;jettySize=auto;html=1;strokeColor=#000000;" parent="97cKPJCTR9U8n9Qk_Sft-95" source="97cKPJCTR9U8n9Qk_Sft-114" target="97cKPJCTR9U8n9Qk_Sft-115" edge="1">
          <mxGeometry relative="1" as="geometry" />
        </mxCell>
        <mxCell id="97cKPJCTR9U8n9Qk_Sft-114" value="график акций" style="rounded=0;whiteSpace=wrap;html=1;fillColor=#f5f5f5;fontColor=#333333;strokeColor=#666666;" parent="97cKPJCTR9U8n9Qk_Sft-95" vertex="1">
          <mxGeometry x="245" y="220" width="100" height="40" as="geometry" />
        </mxCell>
        <mxCell id="97cKPJCTR9U8n9Qk_Sft-131" style="edgeStyle=orthogonalEdgeStyle;rounded=0;orthogonalLoop=1;jettySize=auto;html=1;strokeColor=#000000;entryX=0.25;entryY=0;entryDx=0;entryDy=0;" parent="97cKPJCTR9U8n9Qk_Sft-95" source="97cKPJCTR9U8n9Qk_Sft-113" target="97cKPJCTR9U8n9Qk_Sft-120" edge="1">
          <mxGeometry relative="1" as="geometry" />
        </mxCell>
        <mxCell id="97cKPJCTR9U8n9Qk_Sft-113" value="закончить торги" style="rounded=0;whiteSpace=wrap;html=1;fillColor=#f5f5f5;fontColor=#333333;strokeColor=#666666;" parent="97cKPJCTR9U8n9Qk_Sft-95" vertex="1">
          <mxGeometry x="25" y="361.63" width="100" height="38.27" as="geometry" />
        </mxCell>
        <mxCell id="97cKPJCTR9U8n9Qk_Sft-130" style="edgeStyle=orthogonalEdgeStyle;rounded=0;orthogonalLoop=1;jettySize=auto;html=1;strokeColor=#000000;" parent="97cKPJCTR9U8n9Qk_Sft-95" source="97cKPJCTR9U8n9Qk_Sft-112" target="97cKPJCTR9U8n9Qk_Sft-113" edge="1">
          <mxGeometry relative="1" as="geometry" />
        </mxCell>
        <mxCell id="97cKPJCTR9U8n9Qk_Sft-112" value="начать торги" style="rounded=0;whiteSpace=wrap;html=1;fillColor=#f5f5f5;fontColor=#333333;strokeColor=#666666;" parent="97cKPJCTR9U8n9Qk_Sft-95" vertex="1">
          <mxGeometry x="20" y="290.00000000000006" width="110" height="33.08" as="geometry" />
        </mxCell>
        <mxCell id="97cKPJCTR9U8n9Qk_Sft-129" style="edgeStyle=orthogonalEdgeStyle;rounded=0;orthogonalLoop=1;jettySize=auto;html=1;strokeColor=#000000;" parent="97cKPJCTR9U8n9Qk_Sft-95" source="97cKPJCTR9U8n9Qk_Sft-111" target="97cKPJCTR9U8n9Qk_Sft-112" edge="1">
          <mxGeometry relative="1" as="geometry" />
        </mxCell>
        <mxCell id="97cKPJCTR9U8n9Qk_Sft-111" value="график&amp;nbsp; btc" style="rounded=0;whiteSpace=wrap;html=1;fillColor=#f5f5f5;fontColor=#333333;strokeColor=#666666;" parent="97cKPJCTR9U8n9Qk_Sft-95" vertex="1">
          <mxGeometry x="20" y="210" width="110" height="40" as="geometry" />
        </mxCell>
        <mxCell id="97cKPJCTR9U8n9Qk_Sft-127" style="edgeStyle=orthogonalEdgeStyle;rounded=0;orthogonalLoop=1;jettySize=auto;html=1;strokeColor=#000000;" parent="97cKPJCTR9U8n9Qk_Sft-95" source="97cKPJCTR9U8n9Qk_Sft-115" target="97cKPJCTR9U8n9Qk_Sft-116" edge="1">
          <mxGeometry relative="1" as="geometry" />
        </mxCell>
        <mxCell id="97cKPJCTR9U8n9Qk_Sft-115" value="начать торги" style="rounded=0;whiteSpace=wrap;html=1;fillColor=#f5f5f5;fontColor=#333333;strokeColor=#666666;" parent="97cKPJCTR9U8n9Qk_Sft-95" vertex="1">
          <mxGeometry x="250" y="286.06" width="90" height="40.96" as="geometry" />
        </mxCell>
        <mxCell id="97cKPJCTR9U8n9Qk_Sft-132" style="edgeStyle=orthogonalEdgeStyle;rounded=0;orthogonalLoop=1;jettySize=auto;html=1;strokeColor=#000000;entryX=0.5;entryY=0;entryDx=0;entryDy=0;" parent="97cKPJCTR9U8n9Qk_Sft-95" source="97cKPJCTR9U8n9Qk_Sft-116" target="97cKPJCTR9U8n9Qk_Sft-120" edge="1">
          <mxGeometry relative="1" as="geometry">
            <Array as="points">
              <mxPoint x="280" y="420" />
              <mxPoint x="140" y="420" />
            </Array>
          </mxGeometry>
        </mxCell>
        <mxCell id="97cKPJCTR9U8n9Qk_Sft-116" value="закончить торги" style="rounded=0;whiteSpace=wrap;html=1;fillColor=#f5f5f5;fontColor=#333333;strokeColor=#666666;" parent="97cKPJCTR9U8n9Qk_Sft-95" vertex="1">
          <mxGeometry x="245" y="370" width="100" height="36.15" as="geometry" />
        </mxCell>
        <mxCell id="97cKPJCTR9U8n9Qk_Sft-123" style="edgeStyle=orthogonalEdgeStyle;rounded=0;orthogonalLoop=1;jettySize=auto;html=1;strokeColor=#000000;" parent="97cKPJCTR9U8n9Qk_Sft-95" source="97cKPJCTR9U8n9Qk_Sft-117" target="97cKPJCTR9U8n9Qk_Sft-118" edge="1">
          <mxGeometry relative="1" as="geometry" />
        </mxCell>
        <mxCell id="97cKPJCTR9U8n9Qk_Sft-117" value="график акций" style="rounded=0;whiteSpace=wrap;html=1;fillColor=#f5f5f5;fontColor=#333333;strokeColor=#666666;" parent="97cKPJCTR9U8n9Qk_Sft-95" vertex="1">
          <mxGeometry x="440" y="220" width="100" height="36.06" as="geometry" />
        </mxCell>
        <mxCell id="97cKPJCTR9U8n9Qk_Sft-124" style="edgeStyle=orthogonalEdgeStyle;rounded=0;orthogonalLoop=1;jettySize=auto;html=1;strokeColor=#000000;" parent="97cKPJCTR9U8n9Qk_Sft-95" source="97cKPJCTR9U8n9Qk_Sft-118" target="97cKPJCTR9U8n9Qk_Sft-119" edge="1">
          <mxGeometry relative="1" as="geometry" />
        </mxCell>
        <mxCell id="97cKPJCTR9U8n9Qk_Sft-118" value="начать торги" style="rounded=0;whiteSpace=wrap;html=1;fillColor=#f5f5f5;fontColor=#333333;strokeColor=#666666;" parent="97cKPJCTR9U8n9Qk_Sft-95" vertex="1">
          <mxGeometry x="440" y="286.06" width="100" height="37.02" as="geometry" />
        </mxCell>
        <mxCell id="97cKPJCTR9U8n9Qk_Sft-133" style="edgeStyle=orthogonalEdgeStyle;rounded=0;orthogonalLoop=1;jettySize=auto;html=1;strokeColor=#000000;" parent="97cKPJCTR9U8n9Qk_Sft-95" source="97cKPJCTR9U8n9Qk_Sft-119" target="97cKPJCTR9U8n9Qk_Sft-120" edge="1">
          <mxGeometry relative="1" as="geometry">
            <Array as="points">
              <mxPoint x="490" y="470" />
              <mxPoint x="240" y="470" />
              <mxPoint x="240" y="530" />
            </Array>
          </mxGeometry>
        </mxCell>
        <mxCell id="97cKPJCTR9U8n9Qk_Sft-119" value="закончить торги" style="rounded=0;whiteSpace=wrap;html=1;fillColor=#f5f5f5;fontColor=#333333;strokeColor=#666666;" parent="97cKPJCTR9U8n9Qk_Sft-95" vertex="1">
          <mxGeometry x="440" y="359.79999999999995" width="100" height="40.1" as="geometry" />
        </mxCell>
        <mxCell id="97cKPJCTR9U8n9Qk_Sft-120" value="временное хранилище транзакций" style="rounded=0;whiteSpace=wrap;html=1;fillColor=#f5f5f5;fontColor=#333333;strokeColor=#666666;" parent="97cKPJCTR9U8n9Qk_Sft-95" vertex="1">
          <mxGeometry x="80" y="500" width="120" height="60" as="geometry" />
        </mxCell>
        <mxCell id="97cKPJCTR9U8n9Qk_Sft-121" style="edgeStyle=orthogonalEdgeStyle;rounded=0;orthogonalLoop=1;jettySize=auto;html=1;exitX=0.5;exitY=1;exitDx=0;exitDy=0;" parent="97cKPJCTR9U8n9Qk_Sft-95" source="97cKPJCTR9U8n9Qk_Sft-115" target="97cKPJCTR9U8n9Qk_Sft-115" edge="1">
          <mxGeometry relative="1" as="geometry" />
        </mxCell>
        <mxCell id="97cKPJCTR9U8n9Qk_Sft-151" value="" style="group" parent="1" vertex="1" connectable="0">
          <mxGeometry x="-1430" y="-10" width="680" height="700" as="geometry" />
        </mxCell>
        <mxCell id="97cKPJCTR9U8n9Qk_Sft-135" value="обменник" style="rounded=0;whiteSpace=wrap;html=1;fillColor=#d5e8d4;strokeColor=#82b366;verticalAlign=top;fontStyle=1;fontSize=31;fontColor=#000000;" parent="97cKPJCTR9U8n9Qk_Sft-151" vertex="1">
          <mxGeometry width="570" height="450" as="geometry" />
        </mxCell>
        <mxCell id="97cKPJCTR9U8n9Qk_Sft-136" value="купить" style="rounded=0;whiteSpace=wrap;html=1;fillColor=#f5f5f5;fontColor=#333333;strokeColor=#666666;" parent="97cKPJCTR9U8n9Qk_Sft-151" vertex="1">
          <mxGeometry x="70" y="60" width="120" height="60" as="geometry" />
        </mxCell>
        <mxCell id="97cKPJCTR9U8n9Qk_Sft-137" value="продать" style="rounded=0;whiteSpace=wrap;html=1;fillColor=#f5f5f5;fontColor=#333333;strokeColor=#666666;" parent="97cKPJCTR9U8n9Qk_Sft-151" vertex="1">
          <mxGeometry x="360" y="60" width="120" height="60" as="geometry" />
        </mxCell>
        <mxCell id="97cKPJCTR9U8n9Qk_Sft-145" value="" style="rounded=0;whiteSpace=wrap;html=1;fillColor=#dae8fc;strokeColor=#6c8ebf;" parent="97cKPJCTR9U8n9Qk_Sft-151" vertex="1">
          <mxGeometry x="15" y="150" width="230" height="215" as="geometry" />
        </mxCell>
        <mxCell id="97cKPJCTR9U8n9Qk_Sft-148" style="edgeStyle=orthogonalEdgeStyle;rounded=0;orthogonalLoop=1;jettySize=auto;html=1;strokeColor=#000000;" parent="97cKPJCTR9U8n9Qk_Sft-151" source="97cKPJCTR9U8n9Qk_Sft-136" target="97cKPJCTR9U8n9Qk_Sft-145" edge="1">
          <mxGeometry relative="1" as="geometry" />
        </mxCell>
        <mxCell id="97cKPJCTR9U8n9Qk_Sft-138" value="списать&lt;br&gt;$" style="rounded=0;whiteSpace=wrap;html=1;fillColor=#f5f5f5;fontColor=#333333;strokeColor=#666666;" parent="97cKPJCTR9U8n9Qk_Sft-151" vertex="1">
          <mxGeometry x="60" y="185" width="120" height="60" as="geometry" />
        </mxCell>
        <mxCell id="97cKPJCTR9U8n9Qk_Sft-139" value="получить&lt;br&gt;btc&lt;br&gt;eth" style="rounded=0;whiteSpace=wrap;html=1;fillColor=#f5f5f5;fontColor=#333333;strokeColor=#666666;" parent="97cKPJCTR9U8n9Qk_Sft-151" vertex="1">
          <mxGeometry x="60" y="275" width="120" height="60" as="geometry" />
        </mxCell>
        <mxCell id="97cKPJCTR9U8n9Qk_Sft-147" style="edgeStyle=orthogonalEdgeStyle;rounded=0;orthogonalLoop=1;jettySize=auto;html=1;strokeColor=#000000;" parent="97cKPJCTR9U8n9Qk_Sft-151" source="97cKPJCTR9U8n9Qk_Sft-138" target="97cKPJCTR9U8n9Qk_Sft-139" edge="1">
          <mxGeometry relative="1" as="geometry" />
        </mxCell>
        <mxCell id="97cKPJCTR9U8n9Qk_Sft-144" value="" style="rounded=0;whiteSpace=wrap;html=1;fillColor=#dae8fc;strokeColor=#6c8ebf;" parent="97cKPJCTR9U8n9Qk_Sft-151" vertex="1">
          <mxGeometry x="305" y="150" width="230" height="215" as="geometry" />
        </mxCell>
        <mxCell id="97cKPJCTR9U8n9Qk_Sft-149" style="edgeStyle=orthogonalEdgeStyle;rounded=0;orthogonalLoop=1;jettySize=auto;html=1;strokeColor=#000000;" parent="97cKPJCTR9U8n9Qk_Sft-151" source="97cKPJCTR9U8n9Qk_Sft-137" target="97cKPJCTR9U8n9Qk_Sft-144" edge="1">
          <mxGeometry relative="1" as="geometry" />
        </mxCell>
        <mxCell id="97cKPJCTR9U8n9Qk_Sft-140" value="списать&lt;br&gt;btc&lt;br&gt;eth" style="rounded=0;whiteSpace=wrap;html=1;fillColor=#f5f5f5;fontColor=#333333;strokeColor=#666666;" parent="97cKPJCTR9U8n9Qk_Sft-151" vertex="1">
          <mxGeometry x="360" y="185" width="120" height="60" as="geometry" />
        </mxCell>
        <mxCell id="97cKPJCTR9U8n9Qk_Sft-141" value="получить&lt;br&gt;$" style="rounded=0;whiteSpace=wrap;html=1;fillColor=#f5f5f5;fontColor=#333333;strokeColor=#666666;" parent="97cKPJCTR9U8n9Qk_Sft-151" vertex="1">
          <mxGeometry x="360" y="275" width="120" height="60" as="geometry" />
        </mxCell>
        <mxCell id="97cKPJCTR9U8n9Qk_Sft-150" style="edgeStyle=orthogonalEdgeStyle;rounded=0;orthogonalLoop=1;jettySize=auto;html=1;strokeColor=#000000;" parent="97cKPJCTR9U8n9Qk_Sft-151" source="97cKPJCTR9U8n9Qk_Sft-140" target="97cKPJCTR9U8n9Qk_Sft-141" edge="1">
          <mxGeometry relative="1" as="geometry" />
        </mxCell>
        <mxCell id="97cKPJCTR9U8n9Qk_Sft-142" value="точка в кошелек" style="ellipse;whiteSpace=wrap;html=1;aspect=fixed;fillColor=#fff2cc;strokeColor=#d6b656;fontColor=#000000;" parent="97cKPJCTR9U8n9Qk_Sft-151" vertex="1">
          <mxGeometry x="245" y="520" width="80" height="80" as="geometry" />
        </mxCell>
        <mxCell id="97cKPJCTR9U8n9Qk_Sft-143" style="edgeStyle=orthogonalEdgeStyle;rounded=0;orthogonalLoop=1;jettySize=auto;html=1;strokeColor=#000000;" parent="97cKPJCTR9U8n9Qk_Sft-151" source="97cKPJCTR9U8n9Qk_Sft-135" target="97cKPJCTR9U8n9Qk_Sft-142" edge="1">
          <mxGeometry relative="1" as="geometry" />
        </mxCell>
        <mxCell id="97cKPJCTR9U8n9Qk_Sft-169" value="" style="group" parent="1" vertex="1" connectable="0">
          <mxGeometry x="-1280" y="-1010" width="520" height="640" as="geometry" />
        </mxCell>
        <mxCell id="97cKPJCTR9U8n9Qk_Sft-152" value="P2P сделка" style="rounded=0;whiteSpace=wrap;html=1;fillColor=#d5e8d4;strokeColor=#82b366;fontColor=#000000;fontStyle=1;verticalAlign=top;fontSize=26;" parent="97cKPJCTR9U8n9Qk_Sft-169" vertex="1">
          <mxGeometry width="520" height="500" as="geometry" />
        </mxCell>
        <mxCell id="97cKPJCTR9U8n9Qk_Sft-153" value="" style="rounded=0;whiteSpace=wrap;html=1;fillColor=#dae8fc;strokeColor=#6c8ebf;" parent="97cKPJCTR9U8n9Qk_Sft-169" vertex="1">
          <mxGeometry x="30" y="80" width="470" height="360" as="geometry" />
        </mxCell>
        <mxCell id="97cKPJCTR9U8n9Qk_Sft-154" value="купить" style="rounded=0;whiteSpace=wrap;html=1;fillColor=#f5f5f5;fontColor=#333333;strokeColor=#666666;" parent="97cKPJCTR9U8n9Qk_Sft-169" vertex="1">
          <mxGeometry x="60" y="110" width="110" height="40" as="geometry" />
        </mxCell>
        <mxCell id="97cKPJCTR9U8n9Qk_Sft-155" value="продать" style="rounded=0;whiteSpace=wrap;html=1;fillColor=#f5f5f5;fontColor=#333333;strokeColor=#666666;" parent="97cKPJCTR9U8n9Qk_Sft-169" vertex="1">
          <mxGeometry x="205" y="110" width="110" height="40" as="geometry" />
        </mxCell>
        <mxCell id="97cKPJCTR9U8n9Qk_Sft-162" style="edgeStyle=orthogonalEdgeStyle;rounded=0;orthogonalLoop=1;jettySize=auto;html=1;exitX=0.5;exitY=1;exitDx=0;exitDy=0;strokeColor=#000000;" parent="97cKPJCTR9U8n9Qk_Sft-169" source="97cKPJCTR9U8n9Qk_Sft-156" edge="1">
          <mxGeometry relative="1" as="geometry">
            <mxPoint x="260" y="190" as="targetPoint" />
          </mxGeometry>
        </mxCell>
        <mxCell id="97cKPJCTR9U8n9Qk_Sft-156" value="выбор валют" style="rounded=0;whiteSpace=wrap;html=1;fillColor=#f5f5f5;fontColor=#333333;strokeColor=#666666;" parent="97cKPJCTR9U8n9Qk_Sft-169" vertex="1">
          <mxGeometry x="360" y="110" width="110" height="40" as="geometry" />
        </mxCell>
        <mxCell id="97cKPJCTR9U8n9Qk_Sft-157" value="продавцы" style="rounded=0;whiteSpace=wrap;html=1;fillColor=#f5f5f5;fontColor=#333333;strokeColor=#666666;" parent="97cKPJCTR9U8n9Qk_Sft-169" vertex="1">
          <mxGeometry x="195" y="190" width="130" height="80" as="geometry" />
        </mxCell>
        <mxCell id="97cKPJCTR9U8n9Qk_Sft-160" style="edgeStyle=orthogonalEdgeStyle;rounded=0;orthogonalLoop=1;jettySize=auto;html=1;entryX=0.5;entryY=0;entryDx=0;entryDy=0;exitX=0.5;exitY=1;exitDx=0;exitDy=0;strokeColor=#000000;" parent="97cKPJCTR9U8n9Qk_Sft-169" source="97cKPJCTR9U8n9Qk_Sft-154" target="97cKPJCTR9U8n9Qk_Sft-157" edge="1">
          <mxGeometry relative="1" as="geometry" />
        </mxCell>
        <mxCell id="97cKPJCTR9U8n9Qk_Sft-161" style="edgeStyle=orthogonalEdgeStyle;rounded=0;orthogonalLoop=1;jettySize=auto;html=1;entryX=0.5;entryY=0;entryDx=0;entryDy=0;strokeColor=#000000;" parent="97cKPJCTR9U8n9Qk_Sft-169" source="97cKPJCTR9U8n9Qk_Sft-155" target="97cKPJCTR9U8n9Qk_Sft-157" edge="1">
          <mxGeometry relative="1" as="geometry" />
        </mxCell>
        <mxCell id="97cKPJCTR9U8n9Qk_Sft-158" value="информация о продавце" style="rounded=0;whiteSpace=wrap;html=1;fillColor=#f5f5f5;fontColor=#333333;strokeColor=#666666;" parent="97cKPJCTR9U8n9Qk_Sft-169" vertex="1">
          <mxGeometry x="50" y="310" width="110" height="40" as="geometry" />
        </mxCell>
        <mxCell id="97cKPJCTR9U8n9Qk_Sft-163" style="edgeStyle=orthogonalEdgeStyle;rounded=0;orthogonalLoop=1;jettySize=auto;html=1;exitX=0.5;exitY=1;exitDx=0;exitDy=0;strokeColor=#000000;" parent="97cKPJCTR9U8n9Qk_Sft-169" source="97cKPJCTR9U8n9Qk_Sft-157" target="97cKPJCTR9U8n9Qk_Sft-158" edge="1">
          <mxGeometry relative="1" as="geometry" />
        </mxCell>
        <mxCell id="97cKPJCTR9U8n9Qk_Sft-159" value="произвести сделку" style="rounded=0;whiteSpace=wrap;html=1;fillColor=#f5f5f5;fontColor=#333333;strokeColor=#666666;" parent="97cKPJCTR9U8n9Qk_Sft-169" vertex="1">
          <mxGeometry x="205" y="380" width="110" height="40" as="geometry" />
        </mxCell>
        <mxCell id="97cKPJCTR9U8n9Qk_Sft-166" style="edgeStyle=orthogonalEdgeStyle;rounded=0;orthogonalLoop=1;jettySize=auto;html=1;strokeColor=#000000;" parent="97cKPJCTR9U8n9Qk_Sft-169" source="97cKPJCTR9U8n9Qk_Sft-157" target="97cKPJCTR9U8n9Qk_Sft-159" edge="1">
          <mxGeometry relative="1" as="geometry" />
        </mxCell>
        <mxCell id="97cKPJCTR9U8n9Qk_Sft-165" style="edgeStyle=orthogonalEdgeStyle;rounded=0;orthogonalLoop=1;jettySize=auto;html=1;entryX=0;entryY=0.5;entryDx=0;entryDy=0;exitX=0.5;exitY=1;exitDx=0;exitDy=0;strokeColor=#000000;" parent="97cKPJCTR9U8n9Qk_Sft-169" source="97cKPJCTR9U8n9Qk_Sft-158" target="97cKPJCTR9U8n9Qk_Sft-159" edge="1">
          <mxGeometry relative="1" as="geometry" />
        </mxCell>
        <mxCell id="97cKPJCTR9U8n9Qk_Sft-168" style="edgeStyle=orthogonalEdgeStyle;rounded=0;orthogonalLoop=1;jettySize=auto;html=1;strokeColor=#000000;" parent="97cKPJCTR9U8n9Qk_Sft-169" source="97cKPJCTR9U8n9Qk_Sft-167" target="97cKPJCTR9U8n9Qk_Sft-152" edge="1">
          <mxGeometry relative="1" as="geometry" />
        </mxCell>
        <mxCell id="97cKPJCTR9U8n9Qk_Sft-167" value="точка входа в кошелек" style="ellipse;whiteSpace=wrap;html=1;aspect=fixed;fillColor=#fff2cc;strokeColor=#d6b656;fontColor=#000000;" parent="97cKPJCTR9U8n9Qk_Sft-169" vertex="1">
          <mxGeometry x="220" y="560" width="80" height="80" as="geometry" />
        </mxCell>
        <mxCell id="97cKPJCTR9U8n9Qk_Sft-212" value="" style="group" parent="1" vertex="1" connectable="0">
          <mxGeometry x="620" y="-1190" width="390" height="650" as="geometry" />
        </mxCell>
        <mxCell id="97cKPJCTR9U8n9Qk_Sft-199" value="вход с любой точки" style="ellipse;whiteSpace=wrap;html=1;aspect=fixed;fillColor=#fff2cc;strokeColor=#d6b656;fontColor=#000000;" parent="97cKPJCTR9U8n9Qk_Sft-212" vertex="1">
          <mxGeometry x="155" width="80" height="80" as="geometry" />
        </mxCell>
        <mxCell id="97cKPJCTR9U8n9Qk_Sft-197" value="Сервис поддержки" style="rounded=0;whiteSpace=wrap;html=1;fillColor=#d5e8d4;strokeColor=#82b366;verticalAlign=top;fontStyle=1;fontSize=31;fontColor=#000000;" parent="97cKPJCTR9U8n9Qk_Sft-212" vertex="1">
          <mxGeometry y="150" width="390" height="500" as="geometry" />
        </mxCell>
        <mxCell id="97cKPJCTR9U8n9Qk_Sft-211" style="edgeStyle=orthogonalEdgeStyle;rounded=0;orthogonalLoop=1;jettySize=auto;html=1;strokeColor=#000000;" parent="97cKPJCTR9U8n9Qk_Sft-212" source="97cKPJCTR9U8n9Qk_Sft-199" target="97cKPJCTR9U8n9Qk_Sft-197" edge="1">
          <mxGeometry relative="1" as="geometry" />
        </mxCell>
        <mxCell id="97cKPJCTR9U8n9Qk_Sft-200" value="пользователь падает вопрос&amp;nbsp; по инвестиции" style="rounded=0;whiteSpace=wrap;html=1;fillColor=#f5f5f5;fontColor=#333333;strokeColor=#666666;" parent="97cKPJCTR9U8n9Qk_Sft-212" vertex="1">
          <mxGeometry x="40" y="220" width="300" height="40" as="geometry" />
        </mxCell>
        <mxCell id="97cKPJCTR9U8n9Qk_Sft-201" value="у бота есть набор команд на которые&amp;nbsp; он отвечает" style="rounded=0;whiteSpace=wrap;html=1;fillColor=#f5f5f5;fontColor=#333333;strokeColor=#666666;" parent="97cKPJCTR9U8n9Qk_Sft-212" vertex="1">
          <mxGeometry x="40" y="300" width="300" height="40" as="geometry" />
        </mxCell>
        <mxCell id="97cKPJCTR9U8n9Qk_Sft-205" style="edgeStyle=orthogonalEdgeStyle;rounded=0;orthogonalLoop=1;jettySize=auto;html=1;strokeColor=#000000;" parent="97cKPJCTR9U8n9Qk_Sft-212" source="97cKPJCTR9U8n9Qk_Sft-200" target="97cKPJCTR9U8n9Qk_Sft-201" edge="1">
          <mxGeometry relative="1" as="geometry" />
        </mxCell>
        <mxCell id="97cKPJCTR9U8n9Qk_Sft-202" value="пользователь хочет&amp;nbsp; получить консультацию от специалиста" style="rounded=0;whiteSpace=wrap;html=1;fillColor=#f5f5f5;fontColor=#333333;strokeColor=#666666;" parent="97cKPJCTR9U8n9Qk_Sft-212" vertex="1">
          <mxGeometry x="40" y="380" width="300" height="60" as="geometry" />
        </mxCell>
        <mxCell id="97cKPJCTR9U8n9Qk_Sft-203" value="сервис поддержки&amp;nbsp; перенаправляет вопрос на свободного специалтста&amp;nbsp;" style="rounded=0;whiteSpace=wrap;html=1;fillColor=#f5f5f5;fontColor=#333333;strokeColor=#666666;" parent="97cKPJCTR9U8n9Qk_Sft-212" vertex="1">
          <mxGeometry x="40" y="480" width="300" height="60" as="geometry" />
        </mxCell>
        <mxCell id="97cKPJCTR9U8n9Qk_Sft-204" value="специалист подключаеться&amp;nbsp; и дает ответ" style="rounded=0;whiteSpace=wrap;html=1;fillColor=#f5f5f5;fontColor=#333333;strokeColor=#666666;" parent="97cKPJCTR9U8n9Qk_Sft-212" vertex="1">
          <mxGeometry x="40" y="580" width="300" height="40" as="geometry" />
        </mxCell>
        <mxCell id="97cKPJCTR9U8n9Qk_Sft-206" style="edgeStyle=orthogonalEdgeStyle;rounded=0;orthogonalLoop=1;jettySize=auto;html=1;strokeColor=#000000;" parent="97cKPJCTR9U8n9Qk_Sft-212" edge="1">
          <mxGeometry relative="1" as="geometry">
            <mxPoint x="189.75" y="340" as="sourcePoint" />
            <mxPoint x="189.75" y="380" as="targetPoint" />
          </mxGeometry>
        </mxCell>
        <mxCell id="97cKPJCTR9U8n9Qk_Sft-207" style="edgeStyle=orthogonalEdgeStyle;rounded=0;orthogonalLoop=1;jettySize=auto;html=1;strokeColor=#000000;" parent="97cKPJCTR9U8n9Qk_Sft-212" edge="1">
          <mxGeometry relative="1" as="geometry">
            <mxPoint x="189.72000000000003" y="440" as="sourcePoint" />
            <mxPoint x="189.72000000000003" y="480" as="targetPoint" />
          </mxGeometry>
        </mxCell>
        <mxCell id="97cKPJCTR9U8n9Qk_Sft-208" style="edgeStyle=orthogonalEdgeStyle;rounded=0;orthogonalLoop=1;jettySize=auto;html=1;strokeColor=#000000;" parent="97cKPJCTR9U8n9Qk_Sft-212" edge="1">
          <mxGeometry relative="1" as="geometry">
            <mxPoint x="189.76" y="540" as="sourcePoint" />
            <mxPoint x="189.76" y="580" as="targetPoint" />
          </mxGeometry>
        </mxCell>
        <mxCell id="97cKPJCTR9U8n9Qk_Sft-214" value="" style="group" parent="1" vertex="1" connectable="0">
          <mxGeometry x="-390" y="-1290" width="770" height="920" as="geometry" />
        </mxCell>
        <mxCell id="97cKPJCTR9U8n9Qk_Sft-170" value="NFT" style="rounded=0;whiteSpace=wrap;html=1;fillColor=#d5e8d4;strokeColor=#000000;verticalAlign=top;fontStyle=1;fontColor=#000000;fontSize=36;" parent="97cKPJCTR9U8n9Qk_Sft-214" vertex="1">
          <mxGeometry width="770" height="920" as="geometry" />
        </mxCell>
        <mxCell id="97cKPJCTR9U8n9Qk_Sft-171" value="главная" style="rounded=0;whiteSpace=wrap;html=1;fillColor=#dae8fc;strokeColor=#6c8ebf;verticalAlign=top;fontColor=#000000;fontStyle=1" parent="97cKPJCTR9U8n9Qk_Sft-214" vertex="1">
          <mxGeometry x="90" y="80" width="200" height="280" as="geometry" />
        </mxCell>
        <mxCell id="97cKPJCTR9U8n9Qk_Sft-193" style="edgeStyle=orthogonalEdgeStyle;rounded=0;orthogonalLoop=1;jettySize=auto;html=1;strokeColor=#000000;entryX=0.5;entryY=0;entryDx=0;entryDy=0;exitX=0.535;exitY=0.007;exitDx=0;exitDy=0;exitPerimeter=0;" parent="97cKPJCTR9U8n9Qk_Sft-214" source="97cKPJCTR9U8n9Qk_Sft-172" target="97cKPJCTR9U8n9Qk_Sft-171" edge="1">
          <mxGeometry relative="1" as="geometry">
            <Array as="points">
              <mxPoint x="637" y="60" />
              <mxPoint x="190" y="60" />
            </Array>
          </mxGeometry>
        </mxCell>
        <mxCell id="97cKPJCTR9U8n9Qk_Sft-172" value="авторизация" style="rounded=0;whiteSpace=wrap;html=1;fillColor=#dae8fc;strokeColor=#6c8ebf;verticalAlign=top;fontStyle=1;fontColor=#000000;" parent="97cKPJCTR9U8n9Qk_Sft-214" vertex="1">
          <mxGeometry x="530" y="81" width="200" height="279" as="geometry" />
        </mxCell>
        <mxCell id="97cKPJCTR9U8n9Qk_Sft-173" value="маркетплэйс" style="rounded=0;whiteSpace=wrap;html=1;fillColor=#dae8fc;strokeColor=#6c8ebf;verticalAlign=top;fontColor=#000000;fontStyle=1" parent="97cKPJCTR9U8n9Qk_Sft-214" vertex="1">
          <mxGeometry x="310" y="81" width="200" height="279" as="geometry" />
        </mxCell>
        <mxCell id="97cKPJCTR9U8n9Qk_Sft-174" value="рекомендованные коллекции" style="rounded=0;whiteSpace=wrap;html=1;fillColor=#f5f5f5;fontColor=#333333;strokeColor=#666666;" parent="97cKPJCTR9U8n9Qk_Sft-214" vertex="1">
          <mxGeometry x="120" y="110" width="120" height="40" as="geometry" />
        </mxCell>
        <mxCell id="97cKPJCTR9U8n9Qk_Sft-175" value="лучшие коллекции&lt;br&gt;за&lt;br&gt;7 дней&lt;br&gt;14 дней&lt;br&gt;30 дней" style="rounded=0;whiteSpace=wrap;html=1;fillColor=#f5f5f5;fontColor=#333333;strokeColor=#666666;" parent="97cKPJCTR9U8n9Qk_Sft-214" vertex="1">
          <mxGeometry x="120" y="160" width="120" height="90" as="geometry" />
        </mxCell>
        <mxCell id="97cKPJCTR9U8n9Qk_Sft-176" value="Категории" style="rounded=0;whiteSpace=wrap;html=1;fillColor=#f5f5f5;fontColor=#333333;strokeColor=#666666;" parent="97cKPJCTR9U8n9Qk_Sft-214" vertex="1">
          <mxGeometry x="350" y="130" width="120" height="60" as="geometry" />
        </mxCell>
        <mxCell id="97cKPJCTR9U8n9Qk_Sft-177" value="Коллекция NFT" style="rounded=0;whiteSpace=wrap;html=1;fillColor=#f5f5f5;fontColor=#333333;strokeColor=#666666;" parent="97cKPJCTR9U8n9Qk_Sft-214" vertex="1">
          <mxGeometry x="350" y="240" width="120" height="60" as="geometry" />
        </mxCell>
        <mxCell id="97cKPJCTR9U8n9Qk_Sft-186" style="edgeStyle=orthogonalEdgeStyle;rounded=0;orthogonalLoop=1;jettySize=auto;html=1;strokeColor=#000000;" parent="97cKPJCTR9U8n9Qk_Sft-214" source="97cKPJCTR9U8n9Qk_Sft-176" target="97cKPJCTR9U8n9Qk_Sft-177" edge="1">
          <mxGeometry relative="1" as="geometry" />
        </mxCell>
        <mxCell id="97cKPJCTR9U8n9Qk_Sft-178" value="авторизация" style="rounded=0;whiteSpace=wrap;html=1;fillColor=#f5f5f5;fontColor=#333333;strokeColor=#666666;" parent="97cKPJCTR9U8n9Qk_Sft-214" vertex="1">
          <mxGeometry x="570" y="130" width="120" height="60" as="geometry" />
        </mxCell>
        <mxCell id="97cKPJCTR9U8n9Qk_Sft-179" value="регистрация" style="rounded=0;whiteSpace=wrap;html=1;fillColor=#f5f5f5;fontColor=#333333;strokeColor=#666666;" parent="97cKPJCTR9U8n9Qk_Sft-214" vertex="1">
          <mxGeometry x="570" y="220" width="120" height="60" as="geometry" />
        </mxCell>
        <mxCell id="97cKPJCTR9U8n9Qk_Sft-180" value="рекомендуемые NFT" style="rounded=0;whiteSpace=wrap;html=1;fillColor=#f5f5f5;fontColor=#333333;strokeColor=#666666;" parent="97cKPJCTR9U8n9Qk_Sft-214" vertex="1">
          <mxGeometry x="120" y="270" width="120" height="60" as="geometry" />
        </mxCell>
        <mxCell id="97cKPJCTR9U8n9Qk_Sft-181" value="выбор бокса" style="rounded=0;whiteSpace=wrap;html=1;fillColor=#f5f5f5;fontColor=#333333;strokeColor=#666666;" parent="97cKPJCTR9U8n9Qk_Sft-214" vertex="1">
          <mxGeometry x="20" y="430" width="120" height="60" as="geometry" />
        </mxCell>
        <mxCell id="97cKPJCTR9U8n9Qk_Sft-187" style="edgeStyle=orthogonalEdgeStyle;rounded=0;orthogonalLoop=1;jettySize=auto;html=1;exitX=0;exitY=0.5;exitDx=0;exitDy=0;strokeColor=#000000;" parent="97cKPJCTR9U8n9Qk_Sft-214" source="97cKPJCTR9U8n9Qk_Sft-175" target="97cKPJCTR9U8n9Qk_Sft-181" edge="1">
          <mxGeometry relative="1" as="geometry" />
        </mxCell>
        <mxCell id="97cKPJCTR9U8n9Qk_Sft-182" value="выбранный бокс" style="rounded=0;whiteSpace=wrap;html=1;fillColor=#f5f5f5;fontColor=#333333;strokeColor=#666666;" parent="97cKPJCTR9U8n9Qk_Sft-214" vertex="1">
          <mxGeometry x="20" y="550" width="120" height="60" as="geometry" />
        </mxCell>
        <mxCell id="97cKPJCTR9U8n9Qk_Sft-188" style="edgeStyle=orthogonalEdgeStyle;rounded=0;orthogonalLoop=1;jettySize=auto;html=1;strokeColor=#000000;" parent="97cKPJCTR9U8n9Qk_Sft-214" source="97cKPJCTR9U8n9Qk_Sft-181" target="97cKPJCTR9U8n9Qk_Sft-182" edge="1">
          <mxGeometry relative="1" as="geometry" />
        </mxCell>
        <mxCell id="97cKPJCTR9U8n9Qk_Sft-183" value="выбранное NFT" style="rounded=0;whiteSpace=wrap;html=1;fillColor=#f5f5f5;fontColor=#333333;strokeColor=#666666;" parent="97cKPJCTR9U8n9Qk_Sft-214" vertex="1">
          <mxGeometry x="350" y="420" width="120" height="60" as="geometry" />
        </mxCell>
        <mxCell id="97cKPJCTR9U8n9Qk_Sft-190" style="edgeStyle=orthogonalEdgeStyle;rounded=0;orthogonalLoop=1;jettySize=auto;html=1;strokeColor=#000000;exitX=0.45;exitY=1;exitDx=0;exitDy=0;exitPerimeter=0;entryX=0;entryY=0.5;entryDx=0;entryDy=0;" parent="97cKPJCTR9U8n9Qk_Sft-214" source="97cKPJCTR9U8n9Qk_Sft-171" target="97cKPJCTR9U8n9Qk_Sft-183" edge="1">
          <mxGeometry relative="1" as="geometry" />
        </mxCell>
        <mxCell id="97cKPJCTR9U8n9Qk_Sft-189" style="edgeStyle=orthogonalEdgeStyle;rounded=0;orthogonalLoop=1;jettySize=auto;html=1;strokeColor=#000000;" parent="97cKPJCTR9U8n9Qk_Sft-214" source="97cKPJCTR9U8n9Qk_Sft-173" target="97cKPJCTR9U8n9Qk_Sft-183" edge="1">
          <mxGeometry relative="1" as="geometry" />
        </mxCell>
        <mxCell id="97cKPJCTR9U8n9Qk_Sft-184" value="покупка&amp;nbsp;" style="rounded=0;whiteSpace=wrap;html=1;fillColor=#f5f5f5;fontColor=#333333;strokeColor=#666666;" parent="97cKPJCTR9U8n9Qk_Sft-214" vertex="1">
          <mxGeometry x="350" y="550" width="120" height="60" as="geometry" />
        </mxCell>
        <mxCell id="97cKPJCTR9U8n9Qk_Sft-191" style="edgeStyle=orthogonalEdgeStyle;rounded=0;orthogonalLoop=1;jettySize=auto;html=1;strokeColor=#000000;" parent="97cKPJCTR9U8n9Qk_Sft-214" source="97cKPJCTR9U8n9Qk_Sft-182" target="97cKPJCTR9U8n9Qk_Sft-184" edge="1">
          <mxGeometry relative="1" as="geometry" />
        </mxCell>
        <mxCell id="97cKPJCTR9U8n9Qk_Sft-192" style="edgeStyle=orthogonalEdgeStyle;rounded=0;orthogonalLoop=1;jettySize=auto;html=1;strokeColor=#000000;" parent="97cKPJCTR9U8n9Qk_Sft-214" source="97cKPJCTR9U8n9Qk_Sft-183" target="97cKPJCTR9U8n9Qk_Sft-184" edge="1">
          <mxGeometry relative="1" as="geometry" />
        </mxCell>
        <mxCell id="97cKPJCTR9U8n9Qk_Sft-195" value="" style="endArrow=classic;startArrow=classic;html=1;rounded=0;strokeColor=#000000;" parent="97cKPJCTR9U8n9Qk_Sft-214" edge="1">
          <mxGeometry width="50" height="50" relative="1" as="geometry">
            <mxPoint x="385" y="110" as="sourcePoint" />
            <mxPoint x="410" y="60" as="targetPoint" />
          </mxGeometry>
        </mxCell>
        <mxCell id="97cKPJCTR9U8n9Qk_Sft-215" style="edgeStyle=orthogonalEdgeStyle;rounded=0;orthogonalLoop=1;jettySize=auto;html=1;exitX=0.5;exitY=0;exitDx=0;exitDy=0;strokeColor=#FF0000;strokeWidth=4;entryX=0.75;entryY=0;entryDx=0;entryDy=0;" parent="1" source="97cKPJCTR9U8n9Qk_Sft-152" target="97cKPJCTR9U8n9Qk_Sft-14" edge="1">
          <mxGeometry relative="1" as="geometry">
            <Array as="points">
              <mxPoint x="-1020" y="-1420" />
              <mxPoint x="1053" y="-1420" />
            </Array>
          </mxGeometry>
        </mxCell>
        <mxCell id="97cKPJCTR9U8n9Qk_Sft-216" style="edgeStyle=orthogonalEdgeStyle;rounded=0;orthogonalLoop=1;jettySize=auto;html=1;strokeWidth=3;strokeColor=#FF0000;" parent="1" source="97cKPJCTR9U8n9Qk_Sft-170" target="97cKPJCTR9U8n9Qk_Sft-76" edge="1">
          <mxGeometry relative="1" as="geometry" />
        </mxCell>
        <mxCell id="97cKPJCTR9U8n9Qk_Sft-217" style="edgeStyle=orthogonalEdgeStyle;rounded=0;orthogonalLoop=1;jettySize=auto;html=1;strokeColor=#FF0000;strokeWidth=3;" parent="1" source="97cKPJCTR9U8n9Qk_Sft-170" target="97cKPJCTR9U8n9Qk_Sft-62" edge="1">
          <mxGeometry relative="1" as="geometry" />
        </mxCell>
        <mxCell id="97cKPJCTR9U8n9Qk_Sft-218" style="edgeStyle=orthogonalEdgeStyle;rounded=0;orthogonalLoop=1;jettySize=auto;html=1;entryX=0.5;entryY=0;entryDx=0;entryDy=0;strokeColor=#FF0000;strokeWidth=3;exitX=0.5;exitY=1;exitDx=0;exitDy=0;" parent="1" source="97cKPJCTR9U8n9Qk_Sft-170" target="97cKPJCTR9U8n9Qk_Sft-15" edge="1">
          <mxGeometry relative="1" as="geometry" />
        </mxCell>
        <mxCell id="97cKPJCTR9U8n9Qk_Sft-219" style="edgeStyle=orthogonalEdgeStyle;rounded=0;orthogonalLoop=1;jettySize=auto;html=1;entryX=0.75;entryY=1;entryDx=0;entryDy=0;exitX=0.5;exitY=1;exitDx=0;exitDy=0;strokeColor=#ff0000;strokeWidth=3;" parent="1" source="97cKPJCTR9U8n9Qk_Sft-14" target="97cKPJCTR9U8n9Qk_Sft-135" edge="1">
          <mxGeometry relative="1" as="geometry">
            <Array as="points">
              <mxPoint x="930" y="990" />
              <mxPoint x="-1002" y="990" />
            </Array>
          </mxGeometry>
        </mxCell>
        <mxCell id="97cKPJCTR9U8n9Qk_Sft-220" style="edgeStyle=orthogonalEdgeStyle;rounded=0;orthogonalLoop=1;jettySize=auto;html=1;entryX=0.5;entryY=1;entryDx=0;entryDy=0;exitX=0.25;exitY=1;exitDx=0;exitDy=0;strokeWidth=3;strokeColor=#FF0000;" parent="1" source="97cKPJCTR9U8n9Qk_Sft-14" target="97cKPJCTR9U8n9Qk_Sft-76" edge="1">
          <mxGeometry relative="1" as="geometry">
            <Array as="points">
              <mxPoint x="808" y="910" />
              <mxPoint x="-305" y="910" />
            </Array>
          </mxGeometry>
        </mxCell>
        <mxCell id="LmdWIUkH1QyL_4_JIyVt-1" value="Client" style="rounded=0;whiteSpace=wrap;html=1;fillColor=#f5f5f5;fontColor=#333333;strokeColor=#666666;" vertex="1" parent="1">
          <mxGeometry x="-1260" y="-2080" width="130" height="130" as="geometry" />
        </mxCell>
        <mxCell id="LmdWIUkH1QyL_4_JIyVt-2" value="peration service" style="rounded=0;whiteSpace=wrap;html=1;fillColor=#f5f5f5;fontColor=#333333;strokeColor=#666666;" vertex="1" parent="1">
          <mxGeometry x="-1060" y="-2160" width="130" height="60" as="geometry" />
        </mxCell>
        <mxCell id="LmdWIUkH1QyL_4_JIyVt-3" value="auntificationService" style="rounded=0;whiteSpace=wrap;html=1;fillColor=#f5f5f5;fontColor=#333333;strokeColor=#666666;" vertex="1" parent="1">
          <mxGeometry x="-1060" y="-2045" width="130" height="60" as="geometry" />
        </mxCell>
        <mxCell id="LmdWIUkH1QyL_4_JIyVt-4" value="userservice" style="rounded=0;whiteSpace=wrap;html=1;fillColor=#f5f5f5;fontColor=#333333;strokeColor=#666666;" vertex="1" parent="1">
          <mxGeometry x="-1060" y="-1910" width="130" height="60" as="geometry" />
        </mxCell>
        <mxCell id="LmdWIUkH1QyL_4_JIyVt-5" value="DateBaseSarvice" style="rounded=0;whiteSpace=wrap;html=1;fillColor=#f5f5f5;fontColor=#333333;strokeColor=#666666;" vertex="1" parent="1">
          <mxGeometry x="-750" y="-2020" width="130" height="60" as="geometry" />
        </mxCell>
        <mxCell id="LmdWIUkH1QyL_4_JIyVt-6" value="DateBase" style="shape=cylinder3;whiteSpace=wrap;html=1;boundedLbl=1;backgroundOutline=1;size=15;fillColor=#f5f5f5;fontColor=#333333;strokeColor=#666666;" vertex="1" parent="1">
          <mxGeometry x="-750" y="-1910" width="130" height="110" as="geometry" />
        </mxCell>
        <mxCell id="LmdWIUkH1QyL_4_JIyVt-7" value="bank" style="ellipse;whiteSpace=wrap;html=1;fillColor=#f5f5f5;fontColor=#333333;strokeColor=#666666;" vertex="1" parent="1">
          <mxGeometry x="-600" y="-2170" width="120" height="80" as="geometry" />
        </mxCell>
        <mxCell id="LmdWIUkH1QyL_4_JIyVt-8" value="brokerservice" style="rounded=0;whiteSpace=wrap;html=1;fillColor=#f5f5f5;fontColor=#333333;strokeColor=#666666;" vertex="1" parent="1">
          <mxGeometry x="-820" y="-2160" width="130" height="60" as="geometry" />
        </mxCell>
        <mxCell id="LmdWIUkH1QyL_4_JIyVt-9" value="" style="endArrow=classic;startArrow=classic;html=1;rounded=0;strokeColor=#00CC00;exitX=0;exitY=0.5;exitDx=0;exitDy=0;entryX=1;entryY=0.5;entryDx=0;entryDy=0;" edge="1" parent="1" source="LmdWIUkH1QyL_4_JIyVt-5" target="LmdWIUkH1QyL_4_JIyVt-4">
          <mxGeometry width="50" height="50" relative="1" as="geometry">
            <mxPoint x="-840" y="-1940" as="sourcePoint" />
            <mxPoint x="-980" y="-2000" as="targetPoint" />
          </mxGeometry>
        </mxCell>
        <mxCell id="LmdWIUkH1QyL_4_JIyVt-10" value="" style="endArrow=classic;startArrow=classic;html=1;rounded=0;strokeColor=#00CC00;exitX=0.5;exitY=1;exitDx=0;exitDy=0;entryX=0.5;entryY=0;entryDx=0;entryDy=0;entryPerimeter=0;" edge="1" parent="1" source="LmdWIUkH1QyL_4_JIyVt-5" target="LmdWIUkH1QyL_4_JIyVt-6">
          <mxGeometry width="50" height="50" relative="1" as="geometry">
            <mxPoint x="-740" y="-1980" as="sourcePoint" />
            <mxPoint x="-920" y="-1870" as="targetPoint" />
          </mxGeometry>
        </mxCell>
        <mxCell id="LmdWIUkH1QyL_4_JIyVt-11" value="" style="endArrow=classic;startArrow=classic;html=1;rounded=0;strokeColor=#00CC00;exitX=0;exitY=0.5;exitDx=0;exitDy=0;entryX=0.5;entryY=1;entryDx=0;entryDy=0;" edge="1" parent="1" target="LmdWIUkH1QyL_4_JIyVt-1">
          <mxGeometry width="50" height="50" relative="1" as="geometry">
            <mxPoint x="-1060" y="-1880" as="sourcePoint" />
            <mxPoint x="-1240" y="-1770" as="targetPoint" />
            <Array as="points">
              <mxPoint x="-1195" y="-1880" />
            </Array>
          </mxGeometry>
        </mxCell>
        <mxCell id="LmdWIUkH1QyL_4_JIyVt-13" value="" style="endArrow=classic;startArrow=classic;html=1;rounded=0;strokeColor=#00CC00;entryX=1;entryY=0.5;entryDx=0;entryDy=0;" edge="1" parent="1" source="LmdWIUkH1QyL_4_JIyVt-3" target="LmdWIUkH1QyL_4_JIyVt-1">
          <mxGeometry width="50" height="50" relative="1" as="geometry">
            <mxPoint x="-1060" y="-2020" as="sourcePoint" />
            <mxPoint x="-1240" y="-1910" as="targetPoint" />
          </mxGeometry>
        </mxCell>
        <mxCell id="LmdWIUkH1QyL_4_JIyVt-14" value="" style="endArrow=classic;startArrow=classic;html=1;rounded=0;strokeColor=#00CC00;entryX=0.5;entryY=0;entryDx=0;entryDy=0;" edge="1" parent="1" source="LmdWIUkH1QyL_4_JIyVt-2" target="LmdWIUkH1QyL_4_JIyVt-1">
          <mxGeometry width="50" height="50" relative="1" as="geometry">
            <mxPoint x="-1090" y="-2140" as="sourcePoint" />
            <mxPoint x="-1160" y="-2140" as="targetPoint" />
            <Array as="points">
              <mxPoint x="-1195" y="-2130" />
            </Array>
          </mxGeometry>
        </mxCell>
        <mxCell id="LmdWIUkH1QyL_4_JIyVt-15" value="" style="endArrow=classic;startArrow=classic;html=1;rounded=0;strokeColor=#00CC00;entryX=0.5;entryY=0;entryDx=0;entryDy=0;exitX=0.5;exitY=0;exitDx=0;exitDy=0;" edge="1" parent="1" source="LmdWIUkH1QyL_4_JIyVt-5" target="LmdWIUkH1QyL_4_JIyVt-3">
          <mxGeometry width="50" height="50" relative="1" as="geometry">
            <mxPoint x="-680" y="-2080" as="sourcePoint" />
            <mxPoint x="-1000" y="-2080" as="targetPoint" />
            <Array as="points">
              <mxPoint x="-685" y="-2080" />
              <mxPoint x="-995" y="-2080" />
            </Array>
          </mxGeometry>
        </mxCell>
        <mxCell id="LmdWIUkH1QyL_4_JIyVt-16" value="" style="endArrow=classic;startArrow=classic;html=1;rounded=0;strokeColor=#00CC00;entryX=0.5;entryY=1;entryDx=0;entryDy=0;" edge="1" parent="1" source="LmdWIUkH1QyL_4_JIyVt-3" target="LmdWIUkH1QyL_4_JIyVt-2">
          <mxGeometry width="50" height="50" relative="1" as="geometry">
            <mxPoint x="-1050" y="-2005" as="sourcePoint" />
            <mxPoint x="-1120" y="-2005" as="targetPoint" />
          </mxGeometry>
        </mxCell>
        <mxCell id="LmdWIUkH1QyL_4_JIyVt-17" value="" style="endArrow=classic;startArrow=classic;html=1;rounded=0;strokeColor=#00CC00;entryX=1;entryY=0.5;entryDx=0;entryDy=0;exitX=0;exitY=0.5;exitDx=0;exitDy=0;" edge="1" parent="1" source="LmdWIUkH1QyL_4_JIyVt-8">
          <mxGeometry width="50" height="50" relative="1" as="geometry">
            <mxPoint x="-860" y="-2130.5" as="sourcePoint" />
            <mxPoint x="-930" y="-2130.5" as="targetPoint" />
          </mxGeometry>
        </mxCell>
        <mxCell id="LmdWIUkH1QyL_4_JIyVt-18" value="" style="endArrow=classic;startArrow=classic;html=1;rounded=0;strokeColor=#00CC00;entryX=1;entryY=0.5;entryDx=0;entryDy=0;exitX=0;exitY=0.5;exitDx=0;exitDy=0;" edge="1" parent="1" source="LmdWIUkH1QyL_4_JIyVt-7">
          <mxGeometry width="50" height="50" relative="1" as="geometry">
            <mxPoint x="-620" y="-2130.5" as="sourcePoint" />
            <mxPoint x="-690" y="-2130.5" as="targetPoint" />
          </mxGeometry>
        </mxCell>
      </root>
    </mxGraphModel>
  </diagram>
</mxfile>
